# xmcd CD database file
#
# Track frame offsets:
#	150
#	20272
#	42627
#	62989
#	85747
#	107828
#	123942
#	154637
#	167510
#	190332
#	203143
#	220123
#	236107
#
# Disc length: 3351 seconds
#
# Revision: 0
# Processed by: cddbd v1.5.2PL0 Copyright (c) Steve Scherf et al.
# Submitted via: CDex 1.70beta2
#
DISCID=af0d150d
DTITLE=Alex Klein and Blues Payback - Electric Classics
DYEAR=1900
DGENRE=Blues
TTITLE0=It's Your Move
TTITLE1=I Ain't Superstitious
TTITLE2=Daddy Rolling Stone
TTITLE3=Goiin' Down
TTITLE4=Born Under A Bad Siggn
TTITLE5=Palalce Of The King
TTITLE6=Blind Willie McTell
TTITLE7=Ridin' On The L'n'N
TTITLE8=Rattleshake Snake
TTITLE9=The Stumble
TTITLE10=Messin' With The Kid
TTITLE11=You Don't Love Me
TTITLE12=I'm Tore Down
EXTD=
EXTT0=
EXTT1=
EXTT2=
EXTT3=
EXTT4=
EXTT5=
EXTT6=
EXTT7=
EXTT8=
EXTT9=
EXTT10=
EXTT11=
EXTT12=
PLAYORDER=
